<svg xmlns="http://www.w3.org/2000/svg" viewBox="0 0 786.38 786.38"><defs/><circle cx="394.65" cy="393.19" r="391.74" fill="#25d366"/><path fill="#fff" fill-rule="evenodd" d="M554.26 221.18c-42.74-42.79-99.57-66.36-160.12-66.38-124.77 0-226.31 101.54-226.36 226.34a225.98 225.98 0 0030.21 113.16l-32.11 117.29 120-31.48a226.05 226.05 0 00108.17 27.55h.09c124.75 0 226.3-101.55 226.35-226.35a224.92 224.92 0 00-66.23-160.13zM394.14 569.44h-.08a187.95 187.95 0 01-95.76-26.22l-6.87-4.08-71.21 18.68 19.01-69.43-4.47-7.12A187.66 187.66 0 01206 381.15c.04-103.73 84.44-188.12 188.21-188.12 50.25.02 97.49 19.61 133.01 55.17s55.07 82.83 55.05 133.1c-.03 103.74-84.43 188.14-188.13 188.14zm103.2-140.91c-5.65-2.83-33.46-16.51-38.65-18.4-5.18-1.89-8.96-2.83-12.72 2.83-3.77 5.66-14.61 18.4-17.91 22.17-3.3 3.78-6.6 4.25-12.25 1.42-5.66-2.83-23.88-8.8-45.48-28.07-16.81-15-28.16-33.52-31.46-39.18-3.3-5.67-.03-8.43 2.48-11.54 6.12-7.6 12.25-15.57 14.14-19.35 1.89-3.78.94-7.08-.47-9.91s-12.72-30.67-17.43-42c-4.59-11.02-9.25-9.54-12.73-9.71-3.3-.16-7.07-.2-10.84-.2-3.77 0-9.9 1.41-15.08 7.08-5.18 5.66-19.79 19.34-19.79 47.18s20.27 54.73 23.09 58.51 39.88 60.9 96.62 85.4a325.6 325.6 0 0032.24 11.92c13.55 4.3 25.88 3.7 35.62 2.24 10.87-1.63 33.46-13.68 38.18-26.89 4.71-13.21 4.71-24.53 3.3-26.9-1.43-2.35-5.21-3.77-10.86-6.6z" clip-rule="evenodd"/></svg>