<svg width="18" height="15" viewBox="0 0 18 15" fill="none" xmlns="http://www.w3.org/2000/svg">
<path fill-rule="evenodd" clip-rule="evenodd" d="M0 13.2812C0 13.074 0.0823102 12.8753 0.228823 12.7288C0.375336 12.5823 0.57405 12.5 0.78125 12.5H16.4062C16.6135 12.5 16.8122 12.5823 16.9587 12.7288C17.1052 12.8753 17.1875 13.074 17.1875 13.2812C17.1875 13.4885 17.1052 13.6872 16.9587 13.8337C16.8122 13.9802 16.6135 14.0625 16.4062 14.0625H0.78125C0.57405 14.0625 0.375336 13.9802 0.228823 13.8337C0.0823102 13.6872 0 13.4885 0 13.2812ZM0 7.03125C0 6.82405 0.0823102 6.62534 0.228823 6.47882C0.375336 6.33231 0.57405 6.25 0.78125 6.25H16.4062C16.6135 6.25 16.8122 6.33231 16.9587 6.47882C17.1052 6.62534 17.1875 6.82405 17.1875 7.03125C17.1875 7.23845 17.1052 7.43716 16.9587 7.58368C16.8122 7.73019 16.6135 7.8125 16.4062 7.8125H0.78125C0.57405 7.8125 0.375336 7.73019 0.228823 7.58368C0.0823102 7.43716 0 7.23845 0 7.03125ZM0 0.78125C0 0.57405 0.0823102 0.375336 0.228823 0.228823C0.375336 0.0823102 0.57405 0 0.78125 0H16.4062C16.6135 0 16.8122 0.0823102 16.9587 0.228823C17.1052 0.375336 17.1875 0.57405 17.1875 0.78125C17.1875 0.98845 17.1052 1.18716 16.9587 1.33368C16.8122 1.48019 16.6135 1.5625 16.4062 1.5625H0.78125C0.57405 1.5625 0.375336 1.48019 0.228823 1.33368C0.0823102 1.18716 0 0.98845 0 0.78125Z" fill="#111111"/>
</svg>
