<svg width="11" height="11" viewBox="0 0 11 11" fill="none" xmlns="http://www.w3.org/2000/svg">
<path d="M0.229521 0.229521C0.302092 0.156766 0.388304 0.0990426 0.483219 0.0596575C0.578133 0.0202725 0.679885 0 0.782646 0C0.885408 0 0.98716 0.0202725 1.08207 0.0596575C1.17699 0.0990426 1.2632 0.156766 1.33577 0.229521L5.47015 4.36546L9.60452 0.229521C9.67716 0.156884 9.76339 0.0992644 9.8583 0.0599533C9.9532 0.0206423 10.0549 0.000409037 10.1576 0.000409037C10.2604 0.000409037 10.3621 0.0206423 10.457 0.0599533C10.5519 0.0992644 10.6381 0.156884 10.7108 0.229521C10.7834 0.302159 10.841 0.388391 10.8803 0.483297C10.9197 0.578202 10.9399 0.679921 10.9399 0.782646C10.9399 0.885371 10.9197 0.98709 10.8803 1.082C10.841 1.1769 10.7834 1.26313 10.7108 1.33577L6.57483 5.47015L10.7108 9.60452C10.7834 9.67716 10.841 9.76339 10.8803 9.8583C10.9197 9.9532 10.9399 10.0549 10.9399 10.1576C10.9399 10.2604 10.9197 10.3621 10.8803 10.457C10.841 10.5519 10.7834 10.6381 10.7108 10.7108C10.6381 10.7834 10.5519 10.841 10.457 10.8803C10.3621 10.9197 10.2604 10.9399 10.1576 10.9399C10.0549 10.9399 9.9532 10.9197 9.8583 10.8803C9.76339 10.841 9.67716 10.7834 9.60452 10.7108L5.47015 6.57483L1.33577 10.7108C1.26313 10.7834 1.1769 10.841 1.082 10.8803C0.98709 10.9197 0.885371 10.9399 0.782646 10.9399C0.679921 10.9399 0.578202 10.9197 0.483297 10.8803C0.388391 10.841 0.302159 10.7834 0.229521 10.7108C0.156884 10.6381 0.0992644 10.5519 0.0599533 10.457C0.0206423 10.3621 0.000409037 10.2604 0.000409037 10.1576C0.000409037 10.0549 0.0206423 9.9532 0.0599533 9.8583C0.0992644 9.76339 0.156884 9.67716 0.229521 9.60452L4.36546 5.47015L0.229521 1.33577C0.156766 1.2632 0.0990426 1.17699 0.0596575 1.08207C0.0202725 0.98716 0 0.885408 0 0.782646C0 0.679885 0.0202725 0.578133 0.0596575 0.483219C0.0990426 0.388304 0.156766 0.302092 0.229521 0.229521Z" fill="#111111"/>
</svg>
